<?xml version="1.0" encoding="UTF-8"?>
<svg version="1.1" xmlns="http://www.w3.org/2000/svg" width="250" height="80">
<path d="M0 0 C2.31 0 4.62 0 7 0 C7 2.97 7 5.94 7 9 C7.66 8.67 8.32 8.34 9 8 C16.21726041 7.41796287 16.21726041 7.41796287 19.4375 9.8125 C22.56825738 14.19556034 22.61036339 18.80748823 22 24 C20.5 27.5 20.5 27.5 18 30 C15.12894852 30.97049628 13.11931927 31 10 31 C9.01 30.34 8.02 29.68 7 29 C6.67 29.33 6.34 29.66 6 30 C4.02 30 2.04 30 0 30 C0 20.1 0 10.2 0 0 Z M9 13 C6.84294485 14.7564331 6.84294485 14.7564331 6.734375 16.875 C6.73953125 17.57625 6.7446875 18.2775 6.75 19 C6.74484375 19.70125 6.7396875 20.4025 6.734375 21.125 C6.84294485 23.2435669 6.84294485 23.2435669 9 25 C11.60280568 24.67958603 11.60280568 24.67958603 14 24 C14.93786082 18.94990405 14.93786082 18.94990405 14 14 C11.60280568 13.32041397 11.60280568 13.32041397 9 13 Z " fill="#FFFFFF" transform="translate(131,25)"/>
<path d="M0 0 C2.31 0 4.62 0 7 0 C7 2.97 7 5.94 7 9 C7.66 8.67 8.32 8.34 9 8 C11.05859375 7.796875 11.05859375 7.796875 13.4375 7.75 C14.61119141 7.71132813 14.61119141 7.71132813 15.80859375 7.671875 C18.53677498 8.08037272 19.3441611 8.83272461 21 11 C22.25433458 14.76300374 22.10695422 18.27210909 22.0625 22.1875 C22.05798828 22.93708984 22.05347656 23.68667969 22.04882812 24.45898438 C22.03706354 26.30602383 22.01912865 28.15302213 22 30 C19.69 30 17.38 30 15 30 C14.93941406 29.01257813 14.87882812 28.02515625 14.81640625 27.0078125 C14.73261719 25.72648437 14.64882812 24.44515625 14.5625 23.125 C14.44068359 21.21074219 14.44068359 21.21074219 14.31640625 19.2578125 C14.20793973 16.11699848 14.20793973 16.11699848 13 14 C11.35 14 9.7 14 8 14 C7.67 19.28 7.34 24.56 7 30 C4.69 30 2.38 30 0 30 C0 20.1 0 10.2 0 0 Z " fill="#FFFFFF" transform="translate(78,25)"/>
<path d="M0 0 C0.639375 0.33 1.27875 0.66 1.9375 1 C1.2775 2.65 0.6175 4.3 -0.0625 6 C-3.3625 6 -6.6625 6 -10.0625 6 C-10.3925 6.99 -10.7225 7.98 -11.0625 9 C-9.7321875 9.4021875 -9.7321875 9.4021875 -8.375 9.8125 C-4.50481196 11.1999259 -1.27295144 12.45942544 1.3125 15.75 C2.25303869 19.13593927 1.79735198 21.62201008 0.9375 25 C-2.35476137 28.29226137 -5.37537821 28.96727991 -10 29.1875 C-13.17420617 29.15827158 -15.35978662 28.80180892 -18.0625 27 C-18.0625 25.02 -18.0625 23.04 -18.0625 21 C-14.4325 21.33 -10.8025 21.66 -7.0625 22 C-7.0625 21.01 -7.0625 20.02 -7.0625 19 C-7.68898438 18.67386719 -8.31546875 18.34773438 -8.9609375 18.01171875 C-10.18683594 17.35623047 -10.18683594 17.35623047 -11.4375 16.6875 C-12.24960937 16.25824219 -13.06171875 15.82898438 -13.8984375 15.38671875 C-16.0625 14 -16.0625 14 -18.0625 11 C-18.73342652 4.84984026 -18.73342652 4.84984026 -16.1875 1.625 C-11.339607 -2.0822123 -5.682575 -1.85553469 0 0 Z " fill="#FFFFFF" transform="translate(47.0625,27)"/>
<path d="M0 0 C1.04929688 -0.02578125 2.09859375 -0.0515625 3.1796875 -0.078125 C6.125 0.25 6.125 0.25 8.4921875 1.16015625 C11.23909694 4.67593747 10.53895034 8.62749768 10.375 12.9375 C10.35695312 13.83017578 10.33890625 14.72285156 10.3203125 15.64257812 C10.27317759 17.84613504 10.20740657 20.04752601 10.125 22.25 C7.79166667 22.25 5.45833333 22.25 3.125 22.25 C2.14080078 22.44529297 2.14080078 22.44529297 1.13671875 22.64453125 C-3.24298396 23.43214165 -5.13043007 23.72652476 -9 21.25 C-10.875 18.25 -10.875 18.25 -11.125 14.625 C-9.875 11.25 -9.875 11.25 -6.6875 9.375 C-3.39506853 8.40346285 -0.27840572 7.66504948 3.125 7.25 C3.125 6.59 3.125 5.93 3.125 5.25 C-0.175 5.58 -3.475 5.91 -6.875 6.25 C-7.205 4.6 -7.535 2.95 -7.875 1.25 C-5.18393093 -0.09553453 -3.00334578 0.04405886 0 0 Z M-2.875 14.25 C-2.545 15.57 -2.215 16.89 -1.875 18.25 C0.63465614 17.54660434 0.63465614 17.54660434 3.125 16.25 C4.01193303 14.20894361 4.01193303 14.20894361 4.125 12.25 C1.01948334 12.25 -0.22761084 12.7893715 -2.875 14.25 Z " fill="#FFFFFF" transform="translate(178.875,32.75)"/>
<path d="M0 0 C1.04929687 -0.02578125 2.09859375 -0.0515625 3.1796875 -0.078125 C6.125 0.25 6.125 0.25 8.4921875 1.16015625 C11.23909694 4.67593747 10.53895034 8.62749768 10.375 12.9375 C10.35695313 13.83017578 10.33890625 14.72285156 10.3203125 15.64257812 C10.27317759 17.84613504 10.20740657 20.04752601 10.125 22.25 C7.79166667 22.25 5.45833333 22.25 3.125 22.25 C2.14080078 22.44529297 2.14080078 22.44529297 1.13671875 22.64453125 C-3.24298396 23.43214165 -5.13043007 23.72652476 -9 21.25 C-10.875 18.25 -10.875 18.25 -11.125 14.625 C-9.875 11.25 -9.875 11.25 -6.6875 9.375 C-3.39506853 8.40346285 -0.27840572 7.66504948 3.125 7.25 C3.125 6.59 3.125 5.93 3.125 5.25 C-0.175 5.58 -3.475 5.91 -6.875 6.25 C-7.205 4.6 -7.535 2.95 -7.875 1.25 C-5.18393093 -0.09553453 -3.00334578 0.04405886 0 0 Z M-2.875 14.25 C-2.545 15.57 -2.215 16.89 -1.875 18.25 C0.63465614 17.54660434 0.63465614 17.54660434 3.125 16.25 C4.01193303 14.20894361 4.01193303 14.20894361 4.125 12.25 C1.01948334 12.25 -0.22761084 12.7893715 -2.875 14.25 Z " fill="#FFFFFF" transform="translate(114.875,32.75)"/>
<path d="M0 0 C1.04929687 -0.02578125 2.09859375 -0.0515625 3.1796875 -0.078125 C6.125 0.25 6.125 0.25 8.4921875 1.16015625 C11.23909694 4.67593747 10.53895034 8.62749768 10.375 12.9375 C10.35695313 13.83017578 10.33890625 14.72285156 10.3203125 15.64257812 C10.27317759 17.84613504 10.20740657 20.04752601 10.125 22.25 C7.79166667 22.25 5.45833333 22.25 3.125 22.25 C2.14080078 22.44529297 2.14080078 22.44529297 1.13671875 22.64453125 C-3.24298396 23.43214165 -5.13043007 23.72652476 -9 21.25 C-10.875 18.25 -10.875 18.25 -11.125 14.625 C-9.875 11.25 -9.875 11.25 -6.6875 9.375 C-3.39506853 8.40346285 -0.27840572 7.66504948 3.125 7.25 C3.125 6.59 3.125 5.93 3.125 5.25 C-0.175 5.58 -3.475 5.91 -6.875 6.25 C-7.205 4.6 -7.535 2.95 -7.875 1.25 C-5.18393093 -0.09553453 -3.00334578 0.04405886 0 0 Z M-2.875 14.25 C-2.545 15.57 -2.215 16.89 -1.875 18.25 C0.63465614 17.54660434 0.63465614 17.54660434 3.125 16.25 C4.01193303 14.20894361 4.01193303 14.20894361 4.125 12.25 C1.01948334 12.25 -0.22761084 12.7893715 -2.875 14.25 Z " fill="#FFFFFF" transform="translate(61.875,32.75)"/>
<path d="M0 0 C1.65 0 3.3 0 5 0 C5.66 0.66 6.32 1.32 7 2 C7.66 1.34 8.32 0.68 9 0 C12.125 -0.125 12.125 -0.125 15 0 C15 1.98 15 3.96 15 6 C12.69 6.33 10.38 6.66 8 7 C7.67 11.95 7.34 16.9 7 22 C4.69 22 2.38 22 0 22 C0 14.74 0 7.48 0 0 Z " fill="#FFFFFF" transform="translate(195,33)"/>
<path d="M0 0 C2.31 0 4.62 0 7 0 C7 7.26 7 14.52 7 22 C4.69 22 2.38 22 0 22 C0 14.74 0 7.48 0 0 Z " fill="#FFFFFF" transform="translate(157,33)"/>
<path d="M0 0 C1.4540625 0.0309375 1.4540625 0.0309375 2.9375 0.0625 C3.5625 2.4375 3.5625 2.4375 3.9375 5.0625 C3.2775 5.7225 2.6175 6.3825 1.9375 7.0625 C-1.1875 6.6875 -1.1875 6.6875 -4.0625 6.0625 C-4.105221 4.39638095 -4.10313832 2.72867115 -4.0625 1.0625 C-3.0625 0.0625 -3.0625 0.0625 0 0 Z " fill="#FFFFFF" transform="translate(217.0625,48.9375)"/>
<path d="M0 0 C1.98 0 3.96 0 6 0 C6.38218767 1.65614657 6.71395102 3.32457024 7 5 C6 6 6 6 3.5 6.125 C1 6 1 6 0 5 C-0.04063832 3.33382885 -0.042721 1.66611905 0 0 Z " fill="#FFFFFF" transform="translate(157,25)"/>
</svg>
